<?xml version="1.0" encoding="UTF-8"?> <!-- Generator: Adobe Illustrator 24.1.3, SVG Export Plug-In . SVG Version: 6.00 Build 0) --> <svg xmlns="http://www.w3.org/2000/svg" xmlns:xlink="http://www.w3.org/1999/xlink" version="1.1" id="Ebene_1" x="0px" y="0px" viewBox="0 0 685.8 110.6" style="enable-background:new 0 0 685.8 110.6;" xml:space="preserve"> <style type="text/css"> .Grün_x0020_bogenförmig{fill:url(#SVGID_1_);stroke:#FFFFFF;stroke-width:0.25;stroke-miterlimit:1;} .st0{fill:#003063;} .st1{fill:#0080C9;} .st2{fill:#EC6608;} .st3{fill:#878787;} .st4{fill:#007CC1;} .st5{fill:#706F6F;} </style> <linearGradient id="SVGID_1_" gradientUnits="userSpaceOnUse" x1="0" y1="595.2803" x2="0.7071" y2="594.5732"> <stop offset="0" style="stop-color:#1DA238"></stop> <stop offset="0.9831" style="stop-color:#24391D"></stop> </linearGradient> <path class="st0" d="M67,40.4c-1.6,12.7-12,21.4-24.3,21.4H6.8l3.4-28.3C12,17.8,22.2,7.8,36.7,7.6l34,0L67,40.4z"></path> <path class="st1" d="M102.1,50.7c-0.8,6.6-6.2,11.2-12.7,11.2H70.8l1.8-14.7c1-8.2,6.2-13.4,13.8-13.5l17.7,0L102.1,50.7z"></path> <path class="st2" d="M61.3,90.6c-1.1,8.8-8.3,14.9-16.9,14.9H19.5l2.4-19.6c1.3-10.9,8.3-17.9,18.4-18l23.6,0L61.3,90.6z"></path> <path class="st3" d="M96.9,19.9c-0.6,4.8-4.5,8-9.1,8H74.4l1.3-10.6c0.7-5.9,4.5-9.7,9.9-9.7l12.7,0L96.9,19.9z"></path> <g> <path class="st0" d="M161.8,12.9c-2.8-1.2-7-2.1-11.3-2.1c-11.8,0-17.4,4.8-17.4,19.6c0,15.7,5.6,20.7,17.6,20.7 c4.4,0,8.1-0.9,11.2-2.4l0.8,3.5c-3.1,1.5-7.9,2.8-12.5,2.8c-15.1,0-21.7-7.5-21.7-24.6c0-16.3,6.8-23.5,21.9-23.5 c4.4,0,9.4,1.1,12.1,2.2L161.8,12.9z"></path> <path class="st0" d="M186.8,54.9c-11.9,0-17.2-5.3-17.2-19c0-13.6,5.4-18.9,17.2-18.9c12,0,17,5.4,17,18.9 C203.8,49.6,198.7,54.9,186.8,54.9z M186.8,51.6c9.1,0,12.7-4.3,12.7-15.7c0-11.3-3.5-15.6-12.7-15.6c-9.2,0-12.9,4.3-12.9,15.6 C173.9,47.4,177.5,51.6,186.8,51.6z"></path> <path class="st0" d="M214.3,54.1V17.8l3.4-0.2l0.1,4.1l0.1,5h0.1c2.4-5.7,7.1-9.5,13.3-9.5c1.4,0,2.7,0.1,3.9,0.4l-0.3,3.9 c-1.2-0.4-2.4-0.5-3.7-0.5c-6.9,0-12.7,5.7-12.7,14.6v18.6H214.3z"></path> <path class="st0" d="M261,54.8c-4.7,0-9.1-1.3-12-4.7l-0.1,0.1l0.1,5V63h-4.4V17.8l3.1-0.2l0.9,4.2h0.2c2.8-3,7.3-4.8,12.7-4.8 c10,0,15.6,4.5,15.6,18.8C277.1,49.6,270.9,54.8,261,54.8z M260.5,20.5c-5.1,0-9.1,1.7-11.6,5.1v20.6c1.8,2.8,5.5,5.3,11.2,5.3 c7.3,0,12.6-3.2,12.6-15.7C272.7,23.8,268.3,20.5,260.5,20.5z"></path> <path class="st0" d="M302.2,54.9c-11.9,0-17.2-5.3-17.2-19c0-13.6,5.4-18.9,17.2-18.9c12,0,17,5.4,17,18.9 C319.2,49.6,314.2,54.9,302.2,54.9z M302.2,51.6c9.1,0,12.7-4.3,12.7-15.7c0-11.3-3.5-15.6-12.7-15.6c-9.2,0-12.9,4.3-12.9,15.6 C289.3,47.4,293,51.6,302.2,51.6z"></path> <path class="st0" d="M329.8,54.1V17.8l3.4-0.2l0.1,4.1l0.1,5h0.1c2.4-5.7,7.1-9.5,13.3-9.5c1.4,0,2.7,0.1,3.9,0.4l-0.3,3.9 c-1.2-0.4-2.4-0.5-3.7-0.5c-6.9,0-12.7,5.7-12.7,14.6v18.6H329.8z"></path> <path class="st0" d="M382.2,49l-0.2-0.1c-2.2,3.5-7.1,5.8-12.7,5.8c-7.4,0-12.5-3.3-12.5-11.5c0-6.9,4.8-10.9,14.7-10.9 c3.7,0,7.4,0.7,10.2,1.6v-4.5c0-6.9-3.3-9.2-10.5-9.2c-4.2,0-8,0.7-11.6,2.3l-0.5-3.3c3.9-1.6,8-2.4,12.7-2.4c10,0,14,3.7,14,13.1 v24.1h-3.2L382.2,49z M381.7,36.9c-1-0.7-4.6-1.7-9.6-1.7c-7.9,0-11.4,2.9-11.4,8c0,6.2,4.2,8.3,9.6,8.3c6,0,11.3-3.7,11.3-7.2 V36.9z"></path> <path class="st0" d="M404.9,20.6v24.7c0,4.4,2.6,6.1,6.6,6.1c1.2,0,2.6-0.2,3.5-0.5l0.3,3c-1.1,0.4-3.1,0.7-4.9,0.7 c-6.4,0-9.8-3-9.8-9.2V20.6h-6.4v-3h6.4l0.8-9.6l3.3-0.4v10h10.7v3H404.9z"></path> <path class="st0" d="M421.8,34.6c0-11.5,5.5-17.6,16.3-17.6c9.2,0,15.6,5,15.6,16.8c0,0.6-0.1,1.4-0.1,1.9H426 c0.2,11.7,4.6,15.7,14.3,15.7c4.3,0,7.8-0.9,11.3-2.6l0.6,3.3c-3.5,1.8-7.5,2.8-12.3,2.8C426.9,54.8,421.8,48.7,421.8,34.6z M449.8,33c-0.1-9.2-5-12.7-11.8-12.7c-8,0-11.6,4.3-12,12.7H449.8z"></path> <path class="st4" d="M493.9,54.1V34.2h-21.1v19.9h-9.6V7.7h9.6v18.6h21.1V7.7h9.6v46.4H493.9z"></path> <path class="st4" d="M512,34.8c0-11.8,5.8-18.6,17.9-18.6c10.2,0,16.8,5.4,16.8,17.3c0,1.2-0.1,2.7-0.2,3.8h-25.3 c0.4,7.8,4.1,10.5,12,10.5c4.1,0,7.7-0.7,11.2-2l1,6.5c-3.5,1.5-8.1,2.5-13.3,2.5C518.1,54.8,512,48.2,512,34.8z M538.6,31.9 c-0.1-6.6-3.5-9-8.7-9c-6,0-8.6,2.7-9,9H538.6z"></path> <path class="st4" d="M577.5,50.1l-0.2-0.1c-2.6,2.9-6.8,4.6-11.8,4.6c-7.8,0-12.9-3.8-12.9-12.1c0-7,5.3-11.5,15-11.5 c3.3,0,6.3,0.5,8.7,1.2v-2.8c0-4.6-2.5-6.5-8.7-6.5c-4.5,0-7.8,0.6-11.6,2.1l-0.8-6.5c4.1-1.6,8.7-2.4,13.9-2.4 c11.6,0,15.9,4.5,15.9,14.5v23.5h-6.7L577.5,50.1z M576.3,37.7c-1-0.4-3.6-1.1-7.1-1.1c-5.7,0-8.2,2-8.2,5.8c0,4.3,2.9,5.9,7,5.9 c4.4,0,8.3-2.5,8.3-5.2V37.7z"></path> <path class="st4" d="M595.4,54.1V5.6l8.9-0.4v48.9H595.4z"></path> <path class="st4" d="M626.2,22.9v20.7c0,3.3,1.9,4.6,5.5,4.6c1.1,0,2.6-0.2,3.4-0.4l0.6,5.9c-1.4,0.6-3.9,1-6.5,1 c-7.8,0-11.7-4-11.7-10.9V22.9h-5.2v-6.1h5.5l1.6-8.7l6.9-0.6v9.4h9.8v6.1H626.2z"></path> <path class="st4" d="M668.3,54.1V30c0-4.3-2.5-6.6-7.9-6.6c-3.7,0-6.9,1.5-8.3,3.5v27.3h-8.8V5.6l8.8-0.4v9.5l-0.1,5l0.2,0.1 c3.1-2.6,7.1-3.7,11-3.7c8.9,0,14,5,14,13.8v24.1H668.3z"></path> </g> <g> <path class="st5" d="M142.4,79.2h-8.6v8h9.6v2.4h-12.5V67.4h12v2.4h-9.1v7h8.6V79.2z"></path> <path class="st5" d="M147.6,78.6c0-1.9,0-3.5-0.1-5h2.5l0.1,3.1h0.1c0.7-2.1,2.5-3.5,4.4-3.5c0.3,0,0.6,0,0.8,0.1v2.7 c-0.3-0.1-0.6-0.1-1-0.1c-2,0-3.5,1.6-3.9,3.7c-0.1,0.4-0.1,0.9-0.1,1.4v8.5h-2.9V78.6z"></path> <path class="st5" d="M158.4,86.6c0.9,0.6,2.4,1.2,3.8,1.2c2.1,0,3.1-1.1,3.1-2.4c0-1.4-0.8-2.1-3-2.9c-2.9-1-4.2-2.6-4.2-4.5 c0-2.6,2.1-4.7,5.5-4.7c1.6,0,3,0.5,3.9,1l-0.7,2.1c-0.6-0.4-1.8-0.9-3.3-0.9c-1.7,0-2.7,1-2.7,2.2c0,1.3,1,1.9,3,2.7 c2.8,1.1,4.2,2.4,4.2,4.8c0,2.8-2.2,4.8-6,4.8c-1.7,0-3.4-0.4-4.5-1.1L158.4,86.6z"></path> <path class="st5" d="M175.9,69v4.6h4.2v2.2h-4.2v8.6c0,2,0.6,3.1,2.2,3.1c0.8,0,1.3-0.1,1.7-0.2l0.1,2.2c-0.6,0.2-1.5,0.4-2.6,0.4 c-1.4,0-2.4-0.4-3.1-1.2c-0.8-0.9-1.1-2.3-1.1-4.2v-8.7h-2.5v-2.2h2.5v-3.8L175.9,69z"></path> <path class="st5" d="M186.7,81L186.7,81c0.5-0.6,1-1.3,1.5-1.8l4.7-5.5h3.5l-6.2,6.6l7,9.4h-3.5l-5.5-7.7l-1.5,1.7v6h-2.9V66.2h2.9 V81z"></path> <path class="st5" d="M200.3,66.2h2.9v23.4h-2.9V66.2z"></path> <path class="st5" d="M217.5,89.6l-0.2-2h-0.1c-0.9,1.3-2.6,2.4-4.9,2.4c-3.2,0-4.9-2.3-4.9-4.6c0-3.9,3.4-6,9.6-5.9v-0.3 c0-1.3-0.4-3.7-3.6-3.7c-1.5,0-3,0.5-4.2,1.2l-0.7-1.9c1.3-0.9,3.2-1.4,5.2-1.4c4.9,0,6.1,3.3,6.1,6.5v6c0,1.4,0.1,2.7,0.3,3.8 H217.5z M217,81.4c-3.2-0.1-6.8,0.5-6.8,3.6c0,1.9,1.3,2.8,2.7,2.8c2.1,0,3.4-1.3,3.9-2.7c0.1-0.3,0.2-0.6,0.2-0.9V81.4z"></path> <path class="st5" d="M224.6,86.6c0.9,0.6,2.4,1.2,3.8,1.2c2.1,0,3.1-1.1,3.1-2.4c0-1.4-0.8-2.1-3-2.9c-2.9-1-4.2-2.6-4.2-4.5 c0-2.6,2.1-4.7,5.5-4.7c1.6,0,3,0.5,3.9,1l-0.7,2.1c-0.6-0.4-1.8-0.9-3.3-0.9c-1.7,0-2.7,1-2.7,2.2c0,1.3,1,1.9,3,2.7 c2.8,1.1,4.2,2.4,4.2,4.8c0,2.8-2.2,4.8-6,4.8c-1.7,0-3.4-0.4-4.5-1.1L224.6,86.6z"></path> <path class="st5" d="M238.2,86.6c0.9,0.6,2.4,1.2,3.8,1.2c2.1,0,3.1-1.1,3.1-2.4c0-1.4-0.8-2.1-3-2.9c-2.9-1-4.2-2.6-4.2-4.5 c0-2.6,2.1-4.7,5.5-4.7c1.6,0,3,0.5,3.9,1l-0.7,2.1c-0.6-0.4-1.8-0.9-3.3-0.9c-1.7,0-2.7,1-2.7,2.2c0,1.3,1,1.9,3,2.7 c2.8,1.1,4.2,2.4,4.2,4.8c0,2.8-2.2,4.8-6,4.8c-1.7,0-3.4-0.4-4.5-1.1L238.2,86.6z"></path> <path class="st5" d="M255.4,69.1c0,1-0.7,1.8-1.8,1.8c-1,0-1.7-0.8-1.7-1.8c0-1,0.8-1.8,1.8-1.8C254.7,67.3,255.4,68.1,255.4,69.1z M252.2,89.6v-16h2.9v16H252.2z"></path> <path class="st5" d="M274.1,73.6c-0.1,1.2-0.1,2.4-0.1,4.4v9.3c0,3.7-0.7,5.9-2.3,7.3c-1.6,1.5-3.8,1.9-5.8,1.9 c-1.9,0-4-0.5-5.3-1.3l0.7-2.2c1.1,0.7,2.7,1.3,4.7,1.3c3,0,5.1-1.6,5.1-5.6v-1.8h-0.1c-0.9,1.5-2.6,2.7-5.1,2.7 c-4,0-6.8-3.4-6.8-7.8c0-5.4,3.5-8.5,7.2-8.5c2.8,0,4.3,1.5,5,2.8h0.1l0.1-2.4H274.1z M271.1,79.9c0-0.5,0-0.9-0.2-1.3 c-0.5-1.7-1.9-3.1-4.1-3.1c-2.8,0-4.8,2.3-4.8,6c0,3.1,1.6,5.7,4.7,5.7c1.8,0,3.4-1.1,4-3c0.2-0.5,0.2-1.1,0.2-1.6V79.9z"></path> <path class="st5" d="M280.9,82.1c0.1,3.9,2.6,5.5,5.5,5.5c2.1,0,3.3-0.4,4.4-0.8l0.5,2.1c-1,0.5-2.8,1-5.3,1 c-4.9,0-7.9-3.2-7.9-8.1c0-4.8,2.8-8.6,7.5-8.6c5.2,0,6.6,4.6,6.6,7.5c0,0.6-0.1,1.1-0.1,1.4H280.9z M289.4,80.1 c0-1.8-0.8-4.7-4-4.7c-2.9,0-4.2,2.7-4.5,4.7H289.4z"></path> <path class="st5" d="M326.3,79.8c-0.2-3.1-0.4-6.8-0.3-9.6h-0.1c-0.8,2.6-1.7,5.4-2.8,8.4l-3.9,10.8H317l-3.6-10.6 c-1.1-3.1-1.9-6-2.6-8.6h-0.1c-0.1,2.8-0.2,6.5-0.4,9.8l-0.6,9.5H307l1.6-22.2h3.7l3.8,10.8c0.9,2.7,1.7,5.2,2.2,7.5h0.1 c0.6-2.2,1.4-4.7,2.3-7.5l4-10.8h3.7l1.4,22.2h-2.8L326.3,79.8z"></path> <path class="st5" d="M336.3,82.1c0.1,3.9,2.6,5.5,5.5,5.5c2.1,0,3.3-0.4,4.4-0.8l0.5,2.1c-1,0.5-2.8,1-5.3,1 c-4.9,0-7.9-3.2-7.9-8.1c0-4.8,2.8-8.6,7.5-8.6c5.2,0,6.6,4.6,6.6,7.5c0,0.6-0.1,1.1-0.1,1.4H336.3z M344.8,80.1 c0-1.8-0.8-4.7-4-4.7c-2.9,0-4.2,2.7-4.5,4.7H344.8z"></path> <path class="st5" d="M365.5,66.2v19.3c0,1.4,0,3,0.1,4.1H363l-0.1-2.8h-0.1c-0.9,1.8-2.8,3.1-5.4,3.1c-3.9,0-6.8-3.3-6.8-8.1 c0-5.3,3.3-8.6,7.2-8.6c2.4,0,4.1,1.2,4.8,2.4h0.1v-9.5H365.5z M362.6,80.1c0-0.4,0-0.9-0.1-1.2c-0.4-1.8-2-3.4-4.2-3.4 c-3,0-4.8,2.6-4.8,6.2c0,3.2,1.6,5.9,4.7,5.9c1.9,0,3.7-1.3,4.3-3.5c0.1-0.4,0.1-0.8,0.1-1.3V80.1z"></path> <path class="st5" d="M374.1,69.1c0,1-0.7,1.8-1.8,1.8c-1,0-1.8-0.8-1.8-1.8c0-1,0.8-1.8,1.8-1.8C373.4,67.3,374.1,68.1,374.1,69.1z M370.8,89.6v-16h2.9v16H370.8z"></path> <path class="st5" d="M377.2,87.9l7.2-9.4c0.7-0.9,1.4-1.6,2.1-2.5V76h-8.6v-2.3h12.2l0,1.8l-7.1,9.3c-0.7,0.9-1.3,1.7-2,2.5v0.1 h9.3v2.3h-13V87.9z"></path> <path class="st5" d="M396.9,69.1c0,1-0.7,1.8-1.8,1.8c-1,0-1.8-0.8-1.8-1.8c0-1,0.8-1.8,1.8-1.8C396.2,67.3,396.9,68.1,396.9,69.1z M393.7,89.6v-16h2.9v16H393.7z"></path> <path class="st5" d="M401.9,77.9c0-1.7,0-3-0.1-4.3h2.6l0.2,2.6h0.1c0.8-1.5,2.6-3,5.3-3c2.2,0,5.6,1.3,5.6,6.8v9.5h-2.9v-9.2 c0-2.6-1-4.7-3.7-4.7c-1.9,0-3.4,1.4-3.9,3c-0.1,0.4-0.2,0.9-0.2,1.4v9.6h-2.9V77.9z"></path> <path class="st5" d="M432.1,89.6V75.8h-2.2v-2.2h2.2v-0.8c0-2.2,0.5-4.3,1.8-5.6c1.1-1.1,2.5-1.5,3.9-1.5c1,0,1.9,0.2,2.5,0.5 l-0.4,2.2c-0.4-0.2-1-0.4-1.8-0.4c-2.5,0-3.1,2.2-3.1,4.6v0.9h3.9v2.2H435v13.8H432.1z"></path> <path class="st5" d="M455.3,85.2c0,1.7,0,3.1,0.1,4.4h-2.6l-0.2-2.6h-0.1c-0.8,1.3-2.4,3-5.3,3c-2.5,0-5.5-1.4-5.5-7v-9.3h2.9v8.8 c0,3,0.9,5.1,3.6,5.1c1.9,0,3.3-1.4,3.8-2.6c0.2-0.4,0.3-1,0.3-1.5v-9.8h2.9V85.2z M444,69.1c0-0.9,0.8-1.7,1.7-1.7 c0.9,0,1.6,0.7,1.6,1.7c0,0.9-0.7,1.7-1.6,1.7C444.7,70.8,444,70,444,69.1z M450.1,69.1c0-0.9,0.7-1.7,1.7-1.7 c0.9,0,1.6,0.7,1.6,1.7c0,0.9-0.7,1.7-1.6,1.7C450.8,70.8,450.1,70,450.1,69.1z"></path> <path class="st5" d="M460.6,78.6c0-1.9,0-3.5-0.1-5h2.5l0.1,3.1h0.1c0.7-2.1,2.5-3.5,4.4-3.5c0.3,0,0.6,0,0.8,0.1v2.7 c-0.3-0.1-0.6-0.1-1-0.1c-2,0-3.5,1.6-3.9,3.7c-0.1,0.4-0.1,0.9-0.1,1.4v8.5h-2.9V78.6z"></path> <path class="st5" d="M486,67.4v13.2c0,5,2.2,7.1,5.2,7.1c3.3,0,5.4-2.2,5.4-7.1V67.4h2.9v13c0,6.8-3.6,9.6-8.4,9.6 c-4.6,0-8-2.6-8-9.5V67.4H486z"></path> <path class="st5" d="M504.9,77.9c0-1.7,0-3-0.1-4.3h2.6l0.2,2.6h0.1c0.8-1.5,2.6-3,5.3-3c2.2,0,5.6,1.3,5.6,6.8v9.5h-2.9v-9.2 c0-2.6-1-4.7-3.7-4.7c-1.9,0-3.4,1.4-3.9,3c-0.1,0.4-0.2,0.9-0.2,1.4v9.6h-2.9V77.9z"></path> <path class="st5" d="M527,69v4.6h4.2v2.2H527v8.6c0,2,0.6,3.1,2.2,3.1c0.8,0,1.3-0.1,1.7-0.2l0.1,2.2c-0.6,0.2-1.5,0.4-2.6,0.4 c-1.4,0-2.4-0.4-3.1-1.2c-0.8-0.9-1.1-2.3-1.1-4.2v-8.7h-2.5v-2.2h2.5v-3.8L527,69z"></path> <path class="st5" d="M536.4,82.1c0.1,3.9,2.6,5.5,5.5,5.5c2.1,0,3.3-0.4,4.4-0.8l0.5,2.1c-1,0.5-2.8,1-5.3,1 c-4.9,0-7.9-3.2-7.9-8.1c0-4.8,2.8-8.6,7.5-8.6c5.2,0,6.6,4.6,6.6,7.5c0,0.6-0.1,1.1-0.1,1.4H536.4z M544.9,80.1 c0-1.8-0.8-4.7-4-4.7c-2.9,0-4.2,2.7-4.5,4.7H544.9z"></path> <path class="st5" d="M551.8,78.6c0-1.9,0-3.5-0.1-5h2.5l0.1,3.1h0.1c0.7-2.1,2.5-3.5,4.4-3.5c0.3,0,0.6,0,0.8,0.1v2.7 c-0.3-0.1-0.6-0.1-1-0.1c-2,0-3.5,1.6-3.9,3.7c-0.1,0.4-0.1,0.9-0.1,1.4v8.5h-2.9V78.6z"></path> <path class="st5" d="M563.2,77.9c0-1.7,0-3-0.1-4.3h2.6l0.2,2.6h0.1c0.8-1.5,2.6-3,5.3-3c2.2,0,5.6,1.3,5.6,6.8v9.5h-2.9v-9.2 c0-2.6-1-4.7-3.7-4.7c-1.9,0-3.4,1.4-3.9,3c-0.1,0.4-0.2,0.9-0.2,1.4v9.6h-2.9V77.9z"></path> <path class="st5" d="M583.6,82.1c0.1,3.9,2.6,5.5,5.5,5.5c2.1,0,3.3-0.4,4.4-0.8l0.5,2.1c-1,0.5-2.8,1-5.3,1 c-4.9,0-7.9-3.2-7.9-8.1c0-4.8,2.8-8.6,7.5-8.6c5.2,0,6.6,4.6,6.6,7.5c0,0.6-0.1,1.1-0.1,1.4H583.6z M592.2,80.1 c0-1.8-0.8-4.7-4-4.7c-2.9,0-4.2,2.7-4.5,4.7H592.2z"></path> <path class="st5" d="M599,66.2h2.9v10h0.1c0.5-0.8,1.2-1.6,2.1-2c0.9-0.5,1.9-0.8,3-0.8c2.1,0,5.6,1.3,5.6,6.8v9.5h-2.9v-9.2 c0-2.6-1-4.8-3.7-4.8c-1.9,0-3.4,1.3-3.9,2.9C602,79,602,79.4,602,80v9.6H599V66.2z"></path> <path class="st5" d="M617.9,77.9c0-1.7,0-3-0.1-4.3h2.5l0.1,2.6h0.1c0.9-1.5,2.4-2.9,5-2.9c2.2,0,3.8,1.3,4.5,3.2h0.1 c0.5-0.9,1.1-1.6,1.8-2.1c1-0.7,2-1.1,3.5-1.1c2.1,0,5.2,1.4,5.2,6.9v9.4h-2.8v-9c0-3.1-1.1-4.9-3.5-4.9c-1.7,0-2.9,1.2-3.4,2.6 c-0.1,0.4-0.2,0.9-0.2,1.5v9.9h-2.8V80c0-2.5-1.1-4.4-3.3-4.4c-1.8,0-3.1,1.5-3.6,2.9c-0.2,0.4-0.2,0.9-0.2,1.4v9.6h-2.8V77.9z"></path> <path class="st5" d="M647.5,82.1c0.1,3.9,2.6,5.5,5.5,5.5c2.1,0,3.3-0.4,4.4-0.8l0.5,2.1c-1,0.5-2.8,1-5.3,1 c-4.9,0-7.9-3.2-7.9-8.1c0-4.8,2.8-8.6,7.5-8.6c5.2,0,6.6,4.6,6.6,7.5c0,0.6-0.1,1.1-0.1,1.4H647.5z M656,80.1c0-1.8-0.8-4.7-4-4.7 c-2.9,0-4.2,2.7-4.5,4.7H656z"></path> <path class="st5" d="M662.9,77.9c0-1.7,0-3-0.1-4.3h2.6l0.2,2.6h0.1c0.8-1.5,2.6-3,5.3-3c2.2,0,5.6,1.3,5.6,6.8v9.5h-2.9v-9.2 c0-2.6-1-4.7-3.7-4.7c-1.9,0-3.4,1.4-3.9,3c-0.1,0.4-0.2,0.9-0.2,1.4v9.6h-2.9V77.9z"></path> </g> </svg> 